<mxfile host="app.diagrams.net" agent="Mozilla/5.0 (Macintosh; Intel Mac OS X 10_15_7) AppleWebKit/537.36 (KHTML, like Gecko) Chrome/128.0.0.0 Safari/537.36" version="24.7.7">
  <diagram name="Page-1" id="e7e014a7-5840-1c2e-5031-d8a46d1fe8dd">
    <mxGraphModel dx="1095" dy="615" grid="1" gridSize="10" guides="1" tooltips="1" connect="1" arrows="1" fold="1" page="1" pageScale="1" pageWidth="1169" pageHeight="826" background="none" math="0" shadow="0">
      <root>
        <mxCell id="0" />
        <mxCell id="1" parent="0" />
        <mxCell id="rC1jzke7cSfcXqQ4rUpF-43" value="User Data" style="swimlane;horizontal=0;whiteSpace=wrap;html=1;" parent="1" vertex="1">
          <mxGeometry x="40" y="280" width="760" height="180" as="geometry" />
        </mxCell>
        <mxCell id="rC1jzke7cSfcXqQ4rUpF-50" value="Bookmarks" style="verticalAlign=middle;whiteSpace=wrap;rounded=1;" parent="rC1jzke7cSfcXqQ4rUpF-43" vertex="1">
          <mxGeometry x="140" y="20" width="110" height="40" as="geometry" />
        </mxCell>
        <mxCell id="rC1jzke7cSfcXqQ4rUpF-76" value="Save to Bookmarks" style="verticalAlign=middle;whiteSpace=wrap;rounded=1;" parent="rC1jzke7cSfcXqQ4rUpF-43" vertex="1">
          <mxGeometry x="240" y="70" width="110" height="40" as="geometry" />
        </mxCell>
        <mxCell id="rC1jzke7cSfcXqQ4rUpF-79" value="Like &amp; Dislike" style="verticalAlign=middle;whiteSpace=wrap;rounded=1;" parent="rC1jzke7cSfcXqQ4rUpF-43" vertex="1">
          <mxGeometry x="340" y="120" width="110" height="40" as="geometry" />
        </mxCell>
        <mxCell id="rC1jzke7cSfcXqQ4rUpF-95" value="Give Review" style="verticalAlign=middle;whiteSpace=wrap;rounded=1;" parent="rC1jzke7cSfcXqQ4rUpF-43" vertex="1">
          <mxGeometry x="630" y="20" width="110" height="40" as="geometry" />
        </mxCell>
        <mxCell id="rC1jzke7cSfcXqQ4rUpF-55" value="User" style="swimlane;horizontal=0;whiteSpace=wrap;html=1;" parent="1" vertex="1">
          <mxGeometry x="40" y="80" width="760" height="200" as="geometry" />
        </mxCell>
        <mxCell id="rC1jzke7cSfcXqQ4rUpF-56" style="edgeStyle=orthogonalEdgeStyle;rounded=0;orthogonalLoop=1;jettySize=auto;html=1;endArrow=open;endFill=0;" parent="rC1jzke7cSfcXqQ4rUpF-55" source="rC1jzke7cSfcXqQ4rUpF-57" target="rC1jzke7cSfcXqQ4rUpF-59" edge="1">
          <mxGeometry relative="1" as="geometry" />
        </mxCell>
        <mxCell id="rC1jzke7cSfcXqQ4rUpF-57" value="" style="ellipse;shape=startState;fillColor=#000000;strokeColor=none;" parent="rC1jzke7cSfcXqQ4rUpF-55" vertex="1">
          <mxGeometry x="77.5" y="10" width="30" height="30" as="geometry" />
        </mxCell>
        <mxCell id="rC1jzke7cSfcXqQ4rUpF-58" style="edgeStyle=orthogonalEdgeStyle;rounded=0;orthogonalLoop=1;jettySize=auto;html=1;entryX=0;entryY=0.5;entryDx=0;entryDy=0;endArrow=open;endFill=0;" parent="rC1jzke7cSfcXqQ4rUpF-55" source="rC1jzke7cSfcXqQ4rUpF-59" target="rC1jzke7cSfcXqQ4rUpF-60" edge="1">
          <mxGeometry relative="1" as="geometry" />
        </mxCell>
        <mxCell id="rC1jzke7cSfcXqQ4rUpF-59" value="Login with Google Account" style="verticalAlign=middle;whiteSpace=wrap;rounded=1;" parent="rC1jzke7cSfcXqQ4rUpF-55" vertex="1">
          <mxGeometry x="40" y="70" width="105" height="70" as="geometry" />
        </mxCell>
        <mxCell id="rC1jzke7cSfcXqQ4rUpF-60" value="" style="rhombus;whiteSpace=wrap;html=1;shadow=0;fillStyle=hatch;" parent="rC1jzke7cSfcXqQ4rUpF-55" vertex="1">
          <mxGeometry x="180" y="87.5" width="30" height="35" as="geometry" />
        </mxCell>
        <mxCell id="rC1jzke7cSfcXqQ4rUpF-61" value="Explore" style="verticalAlign=middle;whiteSpace=wrap;rounded=1;" parent="rC1jzke7cSfcXqQ4rUpF-55" vertex="1">
          <mxGeometry x="240" y="30" width="110" height="30" as="geometry" />
        </mxCell>
        <mxCell id="rC1jzke7cSfcXqQ4rUpF-62" value="Maps" style="verticalAlign=middle;whiteSpace=wrap;rounded=1;" parent="rC1jzke7cSfcXqQ4rUpF-55" vertex="1">
          <mxGeometry x="240" y="90" width="110" height="30" as="geometry" />
        </mxCell>
        <mxCell id="rC1jzke7cSfcXqQ4rUpF-63" value="AR Camera" style="verticalAlign=middle;whiteSpace=wrap;rounded=1;" parent="rC1jzke7cSfcXqQ4rUpF-55" vertex="1">
          <mxGeometry x="240" y="150" width="110" height="30" as="geometry" />
        </mxCell>
        <mxCell id="rC1jzke7cSfcXqQ4rUpF-65" style="rounded=0;orthogonalLoop=1;jettySize=auto;html=1;entryX=0;entryY=0.5;entryDx=0;entryDy=0;endArrow=open;endFill=0;" parent="rC1jzke7cSfcXqQ4rUpF-55" source="rC1jzke7cSfcXqQ4rUpF-60" target="rC1jzke7cSfcXqQ4rUpF-61" edge="1">
          <mxGeometry relative="1" as="geometry">
            <mxPoint x="185" y="115" as="sourcePoint" />
            <mxPoint x="230" y="115" as="targetPoint" />
          </mxGeometry>
        </mxCell>
        <mxCell id="rC1jzke7cSfcXqQ4rUpF-66" style="rounded=0;orthogonalLoop=1;jettySize=auto;html=1;entryX=0;entryY=0.5;entryDx=0;entryDy=0;endArrow=open;endFill=0;exitX=1;exitY=0.5;exitDx=0;exitDy=0;" parent="rC1jzke7cSfcXqQ4rUpF-55" source="rC1jzke7cSfcXqQ4rUpF-60" target="rC1jzke7cSfcXqQ4rUpF-62" edge="1">
          <mxGeometry relative="1" as="geometry">
            <mxPoint x="253" y="107" as="sourcePoint" />
            <mxPoint x="300" y="55" as="targetPoint" />
          </mxGeometry>
        </mxCell>
        <mxCell id="rC1jzke7cSfcXqQ4rUpF-67" style="rounded=0;orthogonalLoop=1;jettySize=auto;html=1;entryX=0;entryY=0.5;entryDx=0;entryDy=0;endArrow=open;endFill=0;exitX=1;exitY=1;exitDx=0;exitDy=0;" parent="rC1jzke7cSfcXqQ4rUpF-55" source="rC1jzke7cSfcXqQ4rUpF-60" target="rC1jzke7cSfcXqQ4rUpF-63" edge="1">
          <mxGeometry relative="1" as="geometry">
            <mxPoint x="260" y="115" as="sourcePoint" />
            <mxPoint x="300" y="115" as="targetPoint" />
          </mxGeometry>
        </mxCell>
        <mxCell id="rC1jzke7cSfcXqQ4rUpF-77" style="edgeStyle=orthogonalEdgeStyle;rounded=0;orthogonalLoop=1;jettySize=auto;html=1;entryX=0;entryY=0.5;entryDx=0;entryDy=0;endArrow=open;endFill=0;" parent="rC1jzke7cSfcXqQ4rUpF-55" source="rC1jzke7cSfcXqQ4rUpF-70" target="rC1jzke7cSfcXqQ4rUpF-75" edge="1">
          <mxGeometry relative="1" as="geometry" />
        </mxCell>
        <mxCell id="rC1jzke7cSfcXqQ4rUpF-70" value="View Place Detail" style="verticalAlign=middle;whiteSpace=wrap;rounded=1;" parent="rC1jzke7cSfcXqQ4rUpF-55" vertex="1">
          <mxGeometry x="390" y="81.88" width="120" height="46.25" as="geometry" />
        </mxCell>
        <mxCell id="rC1jzke7cSfcXqQ4rUpF-71" style="rounded=0;orthogonalLoop=1;jettySize=auto;html=1;entryX=0;entryY=0.5;entryDx=0;entryDy=0;endArrow=open;endFill=0;exitX=1;exitY=0.5;exitDx=0;exitDy=0;" parent="rC1jzke7cSfcXqQ4rUpF-55" source="rC1jzke7cSfcXqQ4rUpF-62" target="rC1jzke7cSfcXqQ4rUpF-70" edge="1">
          <mxGeometry relative="1" as="geometry">
            <mxPoint x="253" y="107" as="sourcePoint" />
            <mxPoint x="300" y="55" as="targetPoint" />
          </mxGeometry>
        </mxCell>
        <mxCell id="rC1jzke7cSfcXqQ4rUpF-72" style="rounded=0;orthogonalLoop=1;jettySize=auto;html=1;entryX=0;entryY=0.75;entryDx=0;entryDy=0;endArrow=open;endFill=0;exitX=1;exitY=0.5;exitDx=0;exitDy=0;" parent="rC1jzke7cSfcXqQ4rUpF-55" source="rC1jzke7cSfcXqQ4rUpF-63" target="rC1jzke7cSfcXqQ4rUpF-70" edge="1">
          <mxGeometry relative="1" as="geometry">
            <mxPoint x="410" y="115" as="sourcePoint" />
            <mxPoint x="490" y="115" as="targetPoint" />
          </mxGeometry>
        </mxCell>
        <mxCell id="rC1jzke7cSfcXqQ4rUpF-73" style="rounded=0;orthogonalLoop=1;jettySize=auto;html=1;entryX=0;entryY=0.25;entryDx=0;entryDy=0;endArrow=open;endFill=0;exitX=1;exitY=0.5;exitDx=0;exitDy=0;" parent="rC1jzke7cSfcXqQ4rUpF-55" source="rC1jzke7cSfcXqQ4rUpF-61" target="rC1jzke7cSfcXqQ4rUpF-70" edge="1">
          <mxGeometry relative="1" as="geometry">
            <mxPoint x="410" y="115" as="sourcePoint" />
            <mxPoint x="490" y="115" as="targetPoint" />
          </mxGeometry>
        </mxCell>
        <mxCell id="rC1jzke7cSfcXqQ4rUpF-82" style="edgeStyle=orthogonalEdgeStyle;rounded=0;orthogonalLoop=1;jettySize=auto;html=1;entryX=0.5;entryY=1;entryDx=0;entryDy=0;endArrow=open;endFill=0;" parent="rC1jzke7cSfcXqQ4rUpF-55" source="rC1jzke7cSfcXqQ4rUpF-75" target="rC1jzke7cSfcXqQ4rUpF-81" edge="1">
          <mxGeometry relative="1" as="geometry" />
        </mxCell>
        <mxCell id="rC1jzke7cSfcXqQ4rUpF-75" value="" style="rhombus;whiteSpace=wrap;html=1;" parent="rC1jzke7cSfcXqQ4rUpF-55" vertex="1">
          <mxGeometry x="545" y="87.51" width="30" height="35" as="geometry" />
        </mxCell>
        <mxCell id="rC1jzke7cSfcXqQ4rUpF-83" style="edgeStyle=orthogonalEdgeStyle;rounded=0;orthogonalLoop=1;jettySize=auto;html=1;entryX=0.5;entryY=0;entryDx=0;entryDy=0;endArrow=open;endFill=0;" parent="rC1jzke7cSfcXqQ4rUpF-55" source="rC1jzke7cSfcXqQ4rUpF-81" target="rC1jzke7cSfcXqQ4rUpF-70" edge="1">
          <mxGeometry relative="1" as="geometry" />
        </mxCell>
        <mxCell id="rC1jzke7cSfcXqQ4rUpF-81" value="Find Nearest Place" style="verticalAlign=middle;whiteSpace=wrap;rounded=1;" parent="rC1jzke7cSfcXqQ4rUpF-55" vertex="1">
          <mxGeometry x="580" y="30" width="110" height="30" as="geometry" />
        </mxCell>
        <mxCell id="rC1jzke7cSfcXqQ4rUpF-93" style="edgeStyle=orthogonalEdgeStyle;rounded=0;orthogonalLoop=1;jettySize=auto;html=1;entryX=0.5;entryY=1;entryDx=0;entryDy=0;endArrow=open;endFill=0;" parent="rC1jzke7cSfcXqQ4rUpF-55" source="rC1jzke7cSfcXqQ4rUpF-91" edge="1">
          <mxGeometry relative="1" as="geometry">
            <mxPoint x="725" y="120" as="targetPoint" />
          </mxGeometry>
        </mxCell>
        <mxCell id="rC1jzke7cSfcXqQ4rUpF-91" value="Logout" style="verticalAlign=middle;whiteSpace=wrap;rounded=1;" parent="rC1jzke7cSfcXqQ4rUpF-55" vertex="1">
          <mxGeometry x="580" y="150" width="110" height="30" as="geometry" />
        </mxCell>
        <mxCell id="rC1jzke7cSfcXqQ4rUpF-92" style="edgeStyle=orthogonalEdgeStyle;rounded=0;orthogonalLoop=1;jettySize=auto;html=1;entryX=0.5;entryY=0;entryDx=0;entryDy=0;endArrow=open;endFill=0;exitX=1;exitY=0.5;exitDx=0;exitDy=0;" parent="rC1jzke7cSfcXqQ4rUpF-55" source="rC1jzke7cSfcXqQ4rUpF-75" target="rC1jzke7cSfcXqQ4rUpF-91" edge="1">
          <mxGeometry relative="1" as="geometry">
            <mxPoint x="585" y="115" as="sourcePoint" />
            <mxPoint x="645" y="70" as="targetPoint" />
          </mxGeometry>
        </mxCell>
        <mxCell id="rC1jzke7cSfcXqQ4rUpF-94" value="" style="ellipse;html=1;shape=endState;fillColor=#000000;strokeColor=#000000;" parent="rC1jzke7cSfcXqQ4rUpF-55" vertex="1">
          <mxGeometry x="710" y="87.5" width="30" height="30" as="geometry" />
        </mxCell>
        <mxCell id="rC1jzke7cSfcXqQ4rUpF-68" style="rounded=0;orthogonalLoop=1;jettySize=auto;html=1;entryX=0.5;entryY=0;entryDx=0;entryDy=0;endArrow=open;endFill=0;exitX=0.5;exitY=1;exitDx=0;exitDy=0;edgeStyle=orthogonalEdgeStyle;" parent="1" source="rC1jzke7cSfcXqQ4rUpF-60" target="rC1jzke7cSfcXqQ4rUpF-50" edge="1">
          <mxGeometry relative="1" as="geometry">
            <mxPoint x="292" y="204" as="sourcePoint" />
            <mxPoint x="340" y="255" as="targetPoint" />
          </mxGeometry>
        </mxCell>
        <mxCell id="rC1jzke7cSfcXqQ4rUpF-74" style="edgeStyle=orthogonalEdgeStyle;rounded=0;orthogonalLoop=1;jettySize=auto;html=1;exitX=1;exitY=0.5;exitDx=0;exitDy=0;entryX=0.5;entryY=1;entryDx=0;entryDy=0;endArrow=open;endFill=0;" parent="1" source="rC1jzke7cSfcXqQ4rUpF-50" target="rC1jzke7cSfcXqQ4rUpF-70" edge="1">
          <mxGeometry relative="1" as="geometry">
            <mxPoint x="550" y="230" as="targetPoint" />
          </mxGeometry>
        </mxCell>
        <mxCell id="rC1jzke7cSfcXqQ4rUpF-78" style="edgeStyle=orthogonalEdgeStyle;rounded=0;orthogonalLoop=1;jettySize=auto;html=1;exitX=0.5;exitY=1;exitDx=0;exitDy=0;entryX=1;entryY=0.5;entryDx=0;entryDy=0;endArrow=open;endFill=0;" parent="1" source="rC1jzke7cSfcXqQ4rUpF-75" target="rC1jzke7cSfcXqQ4rUpF-76" edge="1">
          <mxGeometry relative="1" as="geometry">
            <mxPoint x="500" y="218" as="targetPoint" />
            <mxPoint x="300" y="350" as="sourcePoint" />
          </mxGeometry>
        </mxCell>
        <mxCell id="rC1jzke7cSfcXqQ4rUpF-80" style="edgeStyle=orthogonalEdgeStyle;rounded=0;orthogonalLoop=1;jettySize=auto;html=1;exitX=0.5;exitY=1;exitDx=0;exitDy=0;entryX=1;entryY=0.5;entryDx=0;entryDy=0;endArrow=open;endFill=0;" parent="1" source="rC1jzke7cSfcXqQ4rUpF-75" target="rC1jzke7cSfcXqQ4rUpF-79" edge="1">
          <mxGeometry relative="1" as="geometry">
            <mxPoint x="430" y="390" as="targetPoint" />
            <mxPoint x="610" y="213" as="sourcePoint" />
          </mxGeometry>
        </mxCell>
        <mxCell id="rC1jzke7cSfcXqQ4rUpF-84" value="External Apps" style="swimlane;horizontal=0;whiteSpace=wrap;html=1;" parent="1" vertex="1">
          <mxGeometry x="40" y="460" width="760" height="150" as="geometry" />
        </mxCell>
        <mxCell id="rC1jzke7cSfcXqQ4rUpF-85" value="Open Rute with Google Maps" style="verticalAlign=middle;whiteSpace=wrap;rounded=1;" parent="rC1jzke7cSfcXqQ4rUpF-84" vertex="1">
          <mxGeometry x="140" y="20" width="110" height="40" as="geometry" />
        </mxCell>
        <mxCell id="rC1jzke7cSfcXqQ4rUpF-87" value="Post or Share Place Info to Another Platform" style="verticalAlign=middle;whiteSpace=wrap;rounded=1;" parent="rC1jzke7cSfcXqQ4rUpF-84" vertex="1">
          <mxGeometry x="240" y="80" width="170" height="40" as="geometry" />
        </mxCell>
        <mxCell id="rC1jzke7cSfcXqQ4rUpF-86" style="edgeStyle=orthogonalEdgeStyle;rounded=0;orthogonalLoop=1;jettySize=auto;html=1;exitX=0.5;exitY=1;exitDx=0;exitDy=0;entryX=1;entryY=0.5;entryDx=0;entryDy=0;endArrow=open;endFill=0;" parent="1" source="rC1jzke7cSfcXqQ4rUpF-75" target="rC1jzke7cSfcXqQ4rUpF-85" edge="1">
          <mxGeometry relative="1" as="geometry">
            <mxPoint x="500" y="430" as="targetPoint" />
            <mxPoint x="610" y="213" as="sourcePoint" />
          </mxGeometry>
        </mxCell>
        <mxCell id="rC1jzke7cSfcXqQ4rUpF-88" style="edgeStyle=orthogonalEdgeStyle;rounded=0;orthogonalLoop=1;jettySize=auto;html=1;exitX=0.5;exitY=1;exitDx=0;exitDy=0;entryX=1;entryY=0.5;entryDx=0;entryDy=0;endArrow=open;endFill=0;" parent="1" source="rC1jzke7cSfcXqQ4rUpF-75" target="rC1jzke7cSfcXqQ4rUpF-87" edge="1">
          <mxGeometry relative="1" as="geometry">
            <mxPoint x="300" y="510" as="targetPoint" />
            <mxPoint x="610" y="213" as="sourcePoint" />
          </mxGeometry>
        </mxCell>
        <mxCell id="rC1jzke7cSfcXqQ4rUpF-96" style="edgeStyle=orthogonalEdgeStyle;rounded=0;orthogonalLoop=1;jettySize=auto;html=1;entryX=0;entryY=0.5;entryDx=0;entryDy=0;endArrow=open;endFill=0;" parent="1" target="rC1jzke7cSfcXqQ4rUpF-95" edge="1">
          <mxGeometry relative="1" as="geometry">
            <mxPoint x="400" y="380" as="targetPoint" />
            <mxPoint x="600" y="200" as="sourcePoint" />
            <Array as="points">
              <mxPoint x="600" y="320" />
            </Array>
          </mxGeometry>
        </mxCell>
      </root>
    </mxGraphModel>
  </diagram>
</mxfile>
